<svg width="52" height="54" viewBox="0 0 52 54" fill="none" xmlns="http://www.w3.org/2000/svg">
<rect width="51.4521" height="53.1085" rx="10" transform="matrix(-1 0 0 1 51.4521 0)" fill="#C4C4C4"/>
<path d="M19.0674 15.8454L20.3227 15.4441C21.4999 15.0684 22.7575 15.6763 23.2615 16.8639L24.2649 19.2299C24.7012 20.2601 24.4585 21.4723 23.6652 22.2259L21.4544 24.3236C21.5909 25.5789 22.0132 26.8144 22.7202 28.0301C23.3916 29.2063 24.2921 30.2357 25.3685 31.0576L28.0239 30.1709C29.0295 29.8361 30.1262 30.2223 30.7422 31.1288L32.1807 33.2404C32.8982 34.2951 32.7687 35.7488 31.8785 36.6424L30.9254 37.6003C29.9757 38.5534 28.6189 38.8999 27.3647 38.5079C24.4014 37.5839 21.6795 34.8411 19.1945 30.2794C16.706 25.7108 15.8275 21.8328 16.5602 18.6501C16.8682 17.3108 17.8214 16.2433 19.0674 15.8454Z" fill="white"/>
</svg>
