<svg width="52" height="52" viewBox="0 0 52 52" fill="none" xmlns="http://www.w3.org/2000/svg">
<rect width="51.4521" height="51.4521" rx="10" transform="matrix(-1 0 0 1 51.4521 0)" fill="#C4C4C4"/>
<path d="M25.726 37.9124C27.4359 36.4539 29.0209 34.8549 30.4643 33.1322C32.6303 30.5451 35.2025 26.6923 35.2025 23.0208C35.2035 21.1457 34.6481 19.3126 33.6068 17.7533C32.5655 16.1939 31.085 14.9786 29.3527 14.261C27.6204 13.5434 25.7142 13.3558 23.8752 13.722C22.0363 14.0882 20.3473 14.9917 19.0221 16.3182C18.1398 17.1966 17.4404 18.2413 16.9645 19.3918C16.4886 20.5423 16.2456 21.7758 16.2495 23.0208C16.2495 26.6923 18.8217 30.5451 20.9878 33.1322C22.4312 34.8549 24.0161 36.4539 25.726 37.9124ZM25.726 18.9594C26.8032 18.9594 27.8362 19.3873 28.5978 20.149C29.3595 20.9106 29.7874 21.9437 29.7874 23.0208C29.7874 24.0979 29.3595 25.1309 28.5978 25.8926C27.8362 26.6543 26.8032 27.0821 25.726 27.0821C24.6489 27.0821 23.6159 26.6543 22.8542 25.8926C22.0926 25.1309 21.6647 24.0979 21.6647 23.0208C21.6647 21.9437 22.0926 20.9106 22.8542 20.149C23.6159 19.3873 24.6489 18.9594 25.726 18.9594Z" fill="white"/>
</svg>
